<?xml version="1.0" encoding="UTF-8"?>
<svg fill="#FCFCFC" width="100pt" height="100pt" version="1.1" viewBox="0 0 100 100" xmlns="http://www.w3.org/2000/svg">
 <path d="m8.1992 92.5h83.602c4.8984 0 7.8984-5.3008 5.5-9.5l-41.801-72.398c-2.3984-4.1992-8.5-4.1992-10.898 0l-41.902 72.5c-2.3984 4.1992 0.60156 9.3984 5.5 9.3984zm41.902-59.602c2.6992 0 4.8008 2.1992 4.8008 4.8984l-0.90234 27.602c-0.10156 2.1992-1.8008 3.8984-4 3.8984s-3.8984-1.6992-4-3.8984l-0.80078-27.5c0-2.6992 2.1992-5 4.9023-5zm-0.10156 39.902c2.6992 0 5 2.1992 5 5 0 2.6992-2.1992 5-5 5-2.6992 0-5-2.1992-5-5s2.3008-5 5-5z"/>
</svg>
