<?xml version="1.0" encoding="UTF-8"?>
<svg width="33px" height="21px" viewBox="0 0 33 21" version="1.1" xmlns="http://www.w3.org/2000/svg" xmlns:xlink="http://www.w3.org/1999/xlink">
    <!-- Generator: Sketch 63.1 (92452) - https://sketch.com -->
    <title>eye-icon</title>
    <desc>Created with Sketch.</desc>
    <g id="Studio-flow" stroke="none" stroke-width="1" fill="none" fill-rule="evenodd" opacity="0.5">
        <g id="3.2---ACE-overlay-mode-change" transform="translate(-866.000000, -580.000000)" fill="#000000">
            <g id="eye-icon" transform="translate(866.000000, 580.000000)">
                <path d="M16.4762314,6.31032353 C16.4155247,6.31032353 16.3548141,6.31346503 16.2956656,6.3150378 C16.4264196,6.65285625 16.4995832,7.0220978 16.4995832,7.41022057 C16.5026954,9.06632904 15.1811247,10.40346 13.5388895,10.409735 C13.1497358,10.4113078 12.7792795,10.3374562 12.4383676,10.2054728 C12.4352553,10.2730373 12.4336972,10.3406018 12.4336972,10.409735 C12.4352553,12.6959145 14.2471654,14.5121955 16.5182646,14.5045769 C18.7629037,14.4966971 20.5669674,12.6693263 20.5637837,10.4053104 C20.5606672,8.12069963 18.747203,6.30445885 16.4760242,6.31049247 L16.4762314,6.31032353 Z M32.4658182,9.24543911 C32.4658182,9.24543911 29.5082328,6.21921584 27.0984975,4.41210594 C25.0608762,2.8848354 22.9063366,1.56656952 20.4922577,0.72435639 C19.1784616,0.2655598 17.8506783,0.00313748325 16.4981486,0 C15.1454594,0.00314150567 13.8160822,0.265543711 12.5040394,0.72435639 C10.0897214,1.56656952 7.93530142,2.8848354 5.89779967,4.41210594 C3.48969815,6.21905494 0.533668465,9.24543911 0.533668465,9.24543911 C-0.149669692,9.94465541 -0.180831952,11.1183557 0.463621123,11.8553023 C0.463621123,11.8553023 0.765602552,12.1994077 1.54234381,12.9991965 C3.76829354,15.2900822 6.2122994,17.3059956 9.01251938,18.8473848 C11.1839949,20.0431279 13.4752579,20.871142 15.9722237,20.98743 C16.1481231,20.9952857 16.3240185,21 16.4983558,21 C16.6726931,21 16.8485965,20.9952857 17.0244879,20.98743 C19.5228484,20.8695853 21.8127963,20.0430877 23.9841922,18.8473848 C26.7860859,17.3044269 29.2299722,15.2884732 31.4543678,12.9991965 C32.2326671,12.1994198 32.5330921,11.8553023 32.5330921,11.8553023 C33.1821995,11.1199647 33.149523,9.94465541 32.466157,9.24543911 L32.4658182,9.24543911 Z M23.8328361,10.6721493 C23.8328361,10.6910064 23.8312819,10.7082867 23.8312819,10.725571 C23.8312819,10.7695681 23.8328361,10.8135613 23.8328361,10.8559857 C23.792365,14.8956965 20.4861209,18.1920651 16.4997426,18.1780426 C12.5132048,18.1936982 9.20689697,14.895616 9.16664904,10.8575947 C9.16664904,10.8135975 9.16820715,10.7696043 9.16820715,10.7271799 C9.16820715,10.7083269 9.16664904,10.6910426 9.16664904,10.6737582 L9.16664904,10.6313338 C9.16820715,10.5841952 9.16820715,10.5307735 9.16820715,10.5103477 L9.16820715,10.4930633 L9.16820715,10.3265113 L9.16820715,10.3076582 C9.12617795,6.20841566 12.391947,2.85533099 16.4594588,2.8175203 L16.4999298,2.8175203 L16.5404009,2.8175203 C20.609427,2.85365767 23.8750884,6.20829498 23.8332465,10.3060492 L23.8332465,10.3249023 C23.8348006,10.3798967 23.8348006,10.4348912 23.8332465,10.4914544 L23.8332465,10.5087387 C23.8332465,10.5275958 23.8332465,10.5825862 23.8348006,10.6297249 C23.8332465,10.6297249 23.8332465,10.6297249 23.8332465,10.6721493 L23.8328361,10.6721493 Z" id="Fill-1-Copy-13"></path>
            </g>
        </g>
    </g>
</svg>