<?xml version="1.0" encoding="UTF-8"?>
<svg width="26px" height="26px" viewBox="0 0 26 26" version="1.1" xmlns="http://www.w3.org/2000/svg" xmlns:xlink="http://www.w3.org/1999/xlink">
    <title>icon_cavstudio</title>
    <g id="icon_cavstudio" stroke="none" stroke-width="1" fill="none" fill-rule="evenodd">
        <g id="Group-3" transform="translate(2.500000, 2.500000)">
            <circle id="Oval-Copy-10" stroke="#454545" stroke-width="2" cx="10.5" cy="10.5" r="10.5"></circle>
            <path d="M13.6442516,12 C14.208243,12 14.7487346,11.8518519 15.2657267,11.5555556 C15.7827187,11.2592593 16.2010123,10.8333333 16.5206074,10.2777778 C16.8402025,9.72222222 17,9.08333333 17,8.36111111 L17,8.36111111 L15.1388286,8.36111111 C15.1012292,8.76851852 14.9414317,9.125 14.659436,9.43055556 C14.3774403,9.73611111 14.0202458,9.88888889 13.5878525,9.88888889 C13.2870571,9.88888889 12.9533623,9.8287037 12.5867679,9.70833333 C12.2201735,9.58796296 11.6514823,9.37037037 10.8806941,9.05555556 C10.1475054,8.72222222 9.49421547,8.46296296 8.9208243,8.27777778 C8.34743312,8.09259259 7.82574114,8 7.35574837,8 C6.79175705,8 6.25126537,8.14814815 5.73427332,8.44444444 C5.21728127,8.74074074 4.79898771,9.16666667 4.47939262,9.72222222 C4.15979754,10.2777778 4,10.9166667 4,11.6388889 L4,11.6388889 L5.86117137,11.6388889 C5.89877079,11.2314815 6.0538684,10.875 6.32646421,10.5694444 C6.59906001,10.2638889 6.96095445,10.1111111 7.41214751,10.1111111 C7.73174259,10.1111111 8.10303688,10.1805556 8.52603037,10.3194444 C8.94902386,10.4583333 9.50831526,10.6759259 10.2039046,10.9722222 C10.9934924,11.3055556 11.6561822,11.5601852 12.191974,11.7361111 C12.7277657,11.912037 13.2118583,12 13.6442516,12 Z" id="~-copy-3" fill="#454545" fill-rule="nonzero"></path>
        </g>
    </g>
</svg>