<?xml version="1.0" encoding="UTF-8"?>
<svg width="26px" height="26px" viewBox="0 0 26 26" version="1.1" xmlns="http://www.w3.org/2000/svg" xmlns:xlink="http://www.w3.org/1999/xlink">
    <!-- Generator: Sketch 62 (91390) - https://sketch.com -->
    <title>icon-lens</title>
    <desc>Created with Sketch.</desc>
    <g id="Page-1" stroke="none" stroke-width="1" fill="none" fill-rule="evenodd">
        <g id="Artboard-Copy-6" transform="translate(-527.000000, -1188.000000)" fill="#000000">
            <g id="icon-lens" transform="translate(527.000000, 1188.000000)">
                <path d="M12.6719997,0.232319995 C5.81222387,0.232319995 0.232319995,5.81327987 0.232319995,12.6719997 C0.232319995,19.5307196 5.81222387,25.1116794 12.6719997,25.1116794 C19.5303676,25.1116794 25.1116794,19.5307196 25.1116794,12.6719997 C25.1116794,5.81327987 19.5307196,0.232319995 12.6719997,0.232319995 Z M23.3502715,11.7934077 C21.0402715,14.3522717 18.5377276,15.1511709 17.0128636,15.3862716 C17.507846,14.5983901 17.7979996,13.6688989 17.7979996,12.6720349 C17.7979996,12.4644112 17.7815014,12.2608989 17.758125,12.0601533 C18.2503618,11.2337629 19.7766338,8.20751341 18.8374978,3.91452151 C21.3633793,5.69652147 23.0847297,8.5401534 23.3501377,11.7933373 L23.3502715,11.7934077 Z M8.8330878,12.6720349 C8.8330878,10.5545438 10.5559518,8.833123 12.6719997,8.833123 C14.7880477,8.833123 16.5109116,10.5546142 16.5109116,12.6720349 C16.5109116,14.7881533 14.7880477,16.5109468 12.6719997,16.5109468 C10.5559518,16.5109468 8.8330878,14.7880829 8.8330878,12.6720349 Z M17.2522236,2.99062713 C18.3095964,6.26450866 17.7527324,8.824675 17.1944745,10.262947 C16.6458473,9.23718379 15.7589833,8.41769261 14.6823561,7.95706542 C14.2079658,7.11008304 12.3489834,4.2842975 8.17176429,2.95197753 C9.54262826,2.31397755 11.0647818,1.94821436 12.6720842,1.94821436 C14.3124746,1.94959068 15.8620841,2.33045115 17.2523081,2.99045113 L17.2522236,2.99062713 Z M6.57395185,3.86239031 C9.94132457,4.58427189 11.8842237,6.34976305 12.8494077,7.55557423 C12.7902823,7.55282511 12.7311568,7.54595055 12.6720314,7.54595055 C11.5211674,7.54595055 10.4624218,7.93096814 9.60716746,8.57308652 C8.65842188,8.55796108 5.26067156,8.74221196 1.99939163,11.7163409 C2.28676795,8.46583213 4.03025559,5.62920499 6.57398353,3.86251703 L6.57395185,3.86239031 Z M1.99372795,13.5494301 C4.3037279,10.9905661 6.80486384,10.1944478 8.33113581,9.95938217 C7.83615342,10.7472638 7.54599983,11.6753821 7.54599983,12.6722461 C7.54599983,12.878497 7.56112527,13.0820093 7.58587439,13.2841277 C7.0936376,14.1091453 5.56736563,17.1343036 6.50650161,21.4297595 C3.97924727,19.6450139 2.25926971,16.8027196 1.99386171,13.5495357 L1.99372795,13.5494301 Z M8.09036781,22.3522459 C7.03436784,19.0783644 7.59123183,16.518198 8.14811693,15.0799261 C8.69674412,16.1056892 9.5822353,16.9238076 10.6588625,17.3858076 C11.1318801,18.2300444 12.9908624,21.0585755 17.1722703,22.3908955 C15.8014064,23.0275227 14.2806608,23.3946587 12.6719504,23.3946587 C11.0315601,23.3946587 9.4819505,23.0137947 8.09031853,22.3524219 L8.09036781,22.3522459 Z M18.7714556,21.4805003 C15.4013372,20.7599739 13.4597757,18.99311 12.4931837,17.7887068 C12.553682,17.7914559 12.6128074,17.798334 12.6719328,17.798334 C13.8227968,17.798334 14.8815424,17.4133164 15.7381696,16.771198 C15.7697932,16.7725708 15.7904204,16.7725708 15.8275459,16.7725708 C16.8959363,16.7725708 20.1877698,16.5154454 23.3445057,13.6375885 C23.0543803,16.8839788 21.3108961,19.7152203 18.7713218,21.4805003 L18.7714556,21.4805003 Z" id="Fill-1"></path>
                <path d="M15.3517792,12.6719997 C15.3517792,12.3199997 15.2802774,11.9845085 15.155152,11.6778813 C14.9599011,11.9762576 14.6381344,12.1866269 14.2545248,12.1866269 C13.6495072,12.1866269 13.1586432,11.6957629 13.1586432,11.0907453 C13.1586432,10.7071358 13.3676432,10.3853726 13.6673888,10.1887454 C13.3593888,10.0649962 13.0252704,9.99349449 12.6732704,9.99349449 C11.1924065,9.99349449 9.99338889,11.1924769 9.99338889,12.673376 C9.99338889,14.1528672 11.1923713,15.3532576 12.6732704,15.3532576 C14.1513888,15.3518812 15.3517792,14.1514944 15.3517792,12.6720032 L15.3517792,12.6719997 Z" id="Fill-2"></path>
            </g>
        </g>
    </g>
</svg>