<?xml version="1.0" encoding="UTF-8"?>
<svg width="21px" height="21px" viewBox="0 0 21 21" version="1.1" xmlns="http://www.w3.org/2000/svg" xmlns:xlink="http://www.w3.org/1999/xlink">
    <!-- Generator: Sketch 63.1 (92452) - https://sketch.com -->
    <title>Combined Shape Copy 3</title>
    <desc>Created with Sketch.</desc>
    <g id="Studio-flow" stroke="none" stroke-width="1" fill="none" fill-rule="evenodd">
        <g id="2.1---tweaking-and-iterating" transform="translate(-834.000000, -543.000000)" fill="#FF005E" fill-rule="nonzero" stroke="#FFFFFF" stroke-width="2">
            <path d="M844.5,544 C847.123353,544 849.498353,545.063324 851.217514,546.782486 C852.936676,548.501647 854,550.876647 854,553.5 C854,556.123353 852.936676,558.498353 851.217514,560.217514 C849.498353,561.936676 847.123353,563 844.5,563 C841.876647,563 839.501647,561.936676 837.782486,560.217514 C836.063324,558.498353 835,556.123353 835,553.5 C835,550.876647 836.063324,548.501647 837.782486,546.782486 C839.501647,545.063324 841.876647,544 844.5,544 Z M840.08573,552.620884 C840.029475,552.90521 840,553.199167 840,553.5 C840,554.742641 840.50368,555.867641 841.318019,556.681981 C842.132359,557.49632 843.257359,558 844.5,558 C844.800833,558 845.09479,557.970525 845.379116,557.91427 L840.08573,552.620884 Z M844.5,549 C844.199167,549 843.90521,549.029475 843.620884,549.08573 L848.91427,554.379116 C848.970525,554.09479 849,553.800833 849,553.5 C849,552.257359 848.49632,551.132359 847.681981,550.318019 C846.867641,549.50368 845.742641,549 844.5,549 Z" id="Combined-Shape-Copy-3"></path>
        </g>
    </g>
</svg>