<?xml version="1.0" encoding="UTF-8"?>
<svg width="44px" height="44px" viewBox="0 0 44 44" version="1.1" xmlns="http://www.w3.org/2000/svg" xmlns:xlink="http://www.w3.org/1999/xlink">
    <title>eye_icon_white</title>
    <g id="Studio-flow" stroke="none" stroke-width="1" fill="none" fill-rule="evenodd">
        <g id="Concept-library:-yours" transform="translate(-578.000000, -278.000000)" fill="#FFFFFF">
            <g id="eye_icon_white" transform="translate(578.000000, 278.000000)">
                <path d="M21.9323072,0.402092298 C10.0596182,0.402092298 0.402092298,10.0614459 0.402092298,21.9323072 C0.402092298,33.8031685 10.0596182,43.4625221 21.9323072,43.4625221 C33.8025592,43.4625221 43.4625221,33.8031685 43.4625221,21.9323072 C43.4625221,10.0614459 33.8031685,0.402092298 21.9323072,0.402092298 Z M40.4139314,20.4116672 C36.4158545,24.8404702 32.0845285,26.2231803 29.4453409,26.6300855 C30.3020411,25.2664443 30.8042301,23.6577096 30.8042301,21.9323681 C30.8042301,21.5730194 30.7756754,21.2207866 30.7352164,20.8733423 C31.5871647,19.4430512 34.2287892,14.2053117 32.6033616,6.77513338 C36.9750796,9.85936408 39.9543399,14.7810347 40.4136999,20.4115454 L40.4139314,20.4116672 Z M15.2880366,21.9323681 C15.2880366,18.2674796 18.2699165,15.2880975 21.9323072,15.2880975 C25.5946979,15.2880975 28.5765778,18.2676014 28.5765778,21.9323681 C28.5765778,25.5948806 25.5946979,28.5766387 21.9323072,28.5766387 C18.2699165,28.5766387 15.2880366,25.5947588 15.2880366,21.9323681 Z M29.8596178,5.17608542 C31.689686,10.8424188 30.725883,15.273476 29.7596674,17.7627928 C28.8101203,15.9874335 27.2751634,14.5690834 25.4117702,13.771844 C24.59071,12.3059129 21.3732405,7.41513029 14.1434382,5.10919188 C16.5160874,4.00496114 19.1505839,3.37190946 21.9324534,3.37190946 C24.7715906,3.37429155 27.4536071,4.03347314 29.859764,5.1757808 L29.8596178,5.17608542 Z M11.3779936,6.68490631 C17.2061387,7.93431674 20.5688488,10.9899745 22.2393595,13.0769554 C22.137027,13.0721973 22.0346945,13.060299 21.932362,13.060299 C19.9404821,13.060299 18.1080378,13.7266756 16.6277898,14.8380344 C14.9857302,14.8118557 9.10500847,15.1307515 3.46048552,20.2782822 C3.9578676,14.6524018 6.97544236,9.74285479 11.3780484,6.68512563 L11.3779936,6.68490631 Z M3.450683,23.4509367 C7.44875983,19.0221337 11.777649,17.6442365 14.4192735,17.2373922 C13.5625732,18.6010334 13.0603843,20.2073922 13.0603843,21.9327336 C13.0603843,22.2897063 13.086563,22.6419392 13.129398,22.9917595 C12.2774497,24.4196745 9.63582513,29.6555255 11.2612528,37.0899684 C6.88715873,34.0009857 3.91027449,29.0816301 3.45091451,23.4511195 L3.450683,23.4509367 Z M14.0025597,38.6865794 C12.1748674,33.020246 13.1386705,28.5891889 14.1025101,26.099872 C15.0520571,27.8752314 16.584638,29.2912055 18.4480312,30.0908208 C19.2667155,31.5519999 22.484185,36.4475345 29.7212371,38.753473 C27.3485879,39.8553277 24.7165283,40.4907554 21.9322219,40.4907554 C19.0930847,40.4907554 16.4110682,39.8315677 14.0024744,38.686884 L14.0025597,38.6865794 Z M32.4890577,37.177789 C26.6561606,35.9307241 23.2957656,32.8726903 21.622818,30.7881464 C21.7275265,30.7929045 21.8298589,30.8048088 21.9321914,30.8048088 C23.9240714,30.8048088 25.7565157,30.1384322 27.2391396,29.0270735 C27.2938729,29.0294495 27.3295738,29.0294495 27.3938294,29.0294495 C29.2429666,29.0294495 34.9403708,28.5844247 40.4039522,23.6035185 C39.901812,29.222271 36.8842433,34.1224968 32.4888262,37.177789 L32.4890577,37.177789 Z" id="Fill-1"></path>
                <path d="M26.570387,21.9323072 C26.570387,21.3230764 26.446634,20.7424186 26.2300707,20.2117177 C25.8921365,20.7281382 25.3352326,21.0922389 24.6712929,21.0922389 C23.6241471,21.0922389 22.7745748,20.2426666 22.7745748,19.1955208 C22.7745748,18.5315811 23.1363056,17.9746833 23.655096,17.634367 C23.1220191,17.4201858 22.5437373,17.2964328 21.9345065,17.2964328 C19.3714727,17.2964328 17.29625,19.3715946 17.29625,21.9346893 C17.29625,24.4953471 19.3714118,26.5729458 21.9345065,26.5729458 C24.4927883,26.5705637 26.570387,24.4929711 26.570387,21.9323133 L26.570387,21.9323072 Z" id="Fill-2"></path>
            </g>
        </g>
    </g>
</svg>