<?xml version="1.0" encoding="UTF-8"?>
<svg width="28px" height="28px" viewBox="0 0 28 28" version="1.1" xmlns="http://www.w3.org/2000/svg" xmlns:xlink="http://www.w3.org/1999/xlink">
    <title>icon_search</title>
    <g id="Studio-flow" stroke="none" stroke-width="1" fill="none" fill-rule="evenodd">
        <g id="Concept-library:-yours" transform="translate(-1033.000000, -153.000000)">
            <g id="icon_search" transform="translate(1033.000000, 153.000000)">
                <polygon id="Path" points="0 0 28 0 28 28 0 28"></polygon>
                <path d="M18.0833333,16.3333333 L17.1616667,16.3333333 L16.835,16.0183333 C17.9783333,14.6883333 18.6666667,12.9616667 18.6666667,11.0833333 C18.6666667,6.895 15.2716667,3.5 11.0833333,3.5 C6.895,3.5 3.5,6.895 3.5,11.0833333 C3.5,15.2716667 6.895,18.6666667 11.0833333,18.6666667 C12.9616667,18.6666667 14.6883333,17.9783333 16.0183333,16.835 L16.3333333,17.1616667 L16.3333333,18.0833333 L22.1666667,23.905 L23.905,22.1666667 L18.0833333,16.3333333 Z M11.0833333,16.3333333 C8.17833333,16.3333333 5.83333333,13.9883333 5.83333333,11.0833333 C5.83333333,8.17833333 8.17833333,5.83333333 11.0833333,5.83333333 C13.9883333,5.83333333 16.3333333,8.17833333 16.3333333,11.0833333 C16.3333333,13.9883333 13.9883333,16.3333333 11.0833333,16.3333333 Z" id="Shape" fill="#454545" fill-rule="nonzero"></path>
            </g>
        </g>
    </g>
</svg>