<?xml version="1.0" encoding="UTF-8"?>
<svg width="28px" height="28px" viewBox="0 0 28 28" version="1.1" xmlns="http://www.w3.org/2000/svg" xmlns:xlink="http://www.w3.org/1999/xlink">
    <title>icon_search_close</title>
    <g id="icon_search_close" stroke="none" stroke-width="1" fill="none" fill-rule="evenodd">
        <g id="search-24px">
            <polygon id="Path" points="0 0 28 0 28 28 0 28"></polygon>
        </g>
        <g id="np_close_3398368_000000" transform="translate(5.000000, 5.000000)" fill="#454545" fill-rule="nonzero">
            <path d="M10.2723289,9 L12.8186714,11.5454785 C13.1705025,11.8973097 13.1705025,12.4659763 12.8186714,12.8186498 C12.4659979,13.1704809 11.8973313,13.1704809 11.5455001,12.8186498 L9.0000216,10.2723073 L6.45454305,12.8186498 C6.10271191,13.1704809 5.53320294,13.1704809 5.1813718,12.8186498 C4.82954065,12.4659763 4.82954065,11.8973097 5.1813718,11.5454785 L7.72771431,9 L5.1813718,6.45452146 C4.82954065,6.10269031 4.82954065,5.53318134 5.1813718,5.1813502 C5.53320294,4.82951906 6.10271191,4.82951906 6.45454305,5.1813502 L9.0000216,7.72769271 L11.5455001,5.1813502 C11.8973313,4.82951906 12.4659979,4.82951906 12.8186714,5.1813502 C13.1705025,5.53318134 13.1705025,6.10269031 12.8186714,6.45452146 L10.2723289,9 Z M9,18 C4.02956705,18 0,13.9704329 0,9 C0,4.02956705 4.02956705,0 9,0 C13.9704329,0 18,4.02870308 18,9 C18,13.9704329 13.9704329,18 9,18 Z M9,16.1995032 C12.9764328,16.1995032 16.1994816,12.9755904 16.1994816,9.0000216 C16.1994816,5.02358885 12.9755688,1.80053998 9,1.80053998 C5.02356725,1.80053998 1.80051838,5.02445282 1.80051838,9.0000216 C1.80051838,12.9764544 5.02356725,16.1995032 9,16.1995032 Z" id="Shape"></path>
        </g>
    </g>
</svg>