<?xml version="1.0" encoding="UTF-8"?>
<svg width="18px" height="18px" viewBox="0 0 18 18" version="1.1" xmlns="http://www.w3.org/2000/svg" xmlns:xlink="http://www.w3.org/1999/xlink">
    <!-- Generator: Sketch 62 (91390) - https://sketch.com -->
    <title>icon_search_set</title>
    <desc>Created with Sketch.</desc>
    <g id="Studio-flow" stroke="none" stroke-width="1" fill="none" fill-rule="evenodd">
        <g id="6.2---dropdown" transform="translate(-832.000000, -171.000000)">
            <g id="icon_search_set" transform="translate(831.000000, 171.000000)">
                <polygon id="Path" points="0 1 20 1 20 21 0 21"></polygon>
                <path d="M18.3333333,12.3333333 L18.3333333,2.33333333 C18.3333333,1.41666667 17.5833333,0.666666667 16.6666667,0.666666667 L6.66666667,0.666666667 C5.75,0.666666667 5,1.41666667 5,2.33333333 L5,12.3333333 C5,13.25 5.75,14 6.66666667,14 L16.6666667,14 C17.5833333,14 18.3333333,13.25 18.3333333,12.3333333 Z M9.16666667,9 L10.8583333,11.2583333 L13.3333333,8.16666667 L16.6666667,12.3333333 L6.66666667,12.3333333 L9.16666667,9 Z M1.66666667,4 L1.66666667,15.6666667 C1.66666667,16.5833333 2.41666667,17.3333333 3.33333333,17.3333333 L15,17.3333333 L15,15.6666667 L3.33333333,15.6666667 L3.33333333,4 L1.66666667,4 Z" id="Shape" fill="#454545" fill-rule="nonzero"></path>
            </g>
        </g>
    </g>
</svg>