<?xml version="1.0" encoding="UTF-8"?>
<svg width="21px" height="21px" viewBox="0 0 21 21" version="1.1" xmlns="http://www.w3.org/2000/svg" xmlns:xlink="http://www.w3.org/1999/xlink">
    <!-- Generator: Sketch 63.1 (92452) - https://sketch.com -->
    <title>Group Copy 17</title>
    <desc>Created with Sketch.</desc>
    <g id="Studio-flow" stroke="none" stroke-width="1" fill="none" fill-rule="evenodd">
        <g id="3.1---ACE-rollover" transform="translate(-587.000000, -553.000000)" style="fill: currentColor">
            <g id="Group-Copy-17" transform="translate(587.000000, 553.000000)">
                <path d="M15.75,0 L0,0 L0,15.75 L15.75,15.75 L15.75,0 Z M14,1.75 L14,14 L1.75,14 L1.75,1.75 L14,1.75 Z" id="Rectangle-Copy-2"></path>
                <path d="M21,5.25 L5.25,5.25 L5.25,21 L21,21 L21,5.25 Z M19.25,7 L19.25,19.25 L7,19.25 L7,7 L19.25,7 Z" id="Rectangle-Copy-3"></path>
                <path d="M11.2998131,6.99981313 L6.99981313,11.3008131 L6.99981313,8.82481313 L8.82581313,6.99981313 L11.2998131,6.99981313 Z" id="Combined-Shape"></path>
                <path d="M14,7 L13.9998131,8.67481313 L8.67581313,13.9998131 L7,14 L6.99981313,13.1998131 L13.2008131,6.99981313 L14,7 Z" id="Combined-Shape"></path>
                <path d="M13.9990631,10.5760631 L13.9990631,13.0500631 L13.0500631,13.9990631 L10.5760631,13.9990631 L13.9990631,10.5760631 Z" id="Combined-Shape"></path>
            </g>
        </g>
    </g>
</svg>
