<?xml version="1.0" encoding="UTF-8"?>
<svg width="401px" height="401px" viewBox="0 0 401 401" version="1.1" xmlns="http://www.w3.org/2000/svg" xmlns:xlink="http://www.w3.org/1999/xlink">
    <!-- Generator: Sketch 62 (91390) - https://sketch.com -->
    <title>lens_border</title>
    <desc>Created with Sketch.</desc>
    <defs>
        <filter x="-28.3%" y="-28.3%" width="156.6%" height="156.6%" filterUnits="objectBoundingBox" id="filter-1">
            <feGaussianBlur stdDeviation="25.7399999" in="SourceGraphic"></feGaussianBlur>
        </filter>
    </defs>
    <g id="Studio-flow" stroke="none" stroke-width="1" fill="none" fill-rule="evenodd">
        <g id="5.2---Publish-complete" transform="translate(-717.000000, -415.000000)">
            <g id="lens_border" transform="translate(768.000000, 440.000000)">
                <g id="lens-border" transform="translate(0.000000, 27.000000)">
                    <circle id="Oval-Copy" fill="#EAEAEA" filter="url(#filter-1)" cx="149.5" cy="148.5" r="136.5"></circle>
                    <ellipse id="Oval-Copy-2" fill="#FFFFFF" cx="148.5" cy="148" rx="148.5" ry="148"></ellipse>
                </g>
                <g id="Group-142-Copy-2" opacity="0.168991815" transform="translate(151.601439, 47.000000) rotate(-140.000000) translate(-151.601439, -47.000000) translate(114.601439, 17.000000)" fill="#000000">
                    <g id="Group-141" transform="translate(0.864947, 0.773402)">
                        <path d="M65.8008319,5.12452967 C65.1935993,4.62670078 64.8454525,4.06866932 64.7575484,3.44696207 C64.667331,2.82293933 64.8373561,2.18270822 65.2653106,1.52279549 C65.5660353,1.06317207 65.9454111,0.730900222 66.4057513,0.524822214 C66.8649349,0.32221743 67.3680705,0.260857124 67.9174715,0.341899038 C68.4645593,0.421783209 69.0093337,0.638280893 69.5541082,0.989076604 L70.3591252,1.51353356 C70.9108394,1.87127572 71.335324,2.28690496 71.6360487,2.75694806 C71.9379301,3.2281489 72.0859792,3.72018909 72.0813527,4.23306863 C72.0778828,4.74710591 71.9217373,5.24030384 71.6152293,5.71150468 C71.1826484,6.37720611 70.6621632,6.7858889 70.0549305,6.93755305 C69.4453846,7.09037495 68.8057662,6.99196691 68.1302921,6.64232894 L68.474969,6.11324102 C69.6130965,6.66779926 70.5118008,6.43856641 71.1733953,5.42322701 C71.5377349,4.85940684 71.6186992,4.27474732 71.4151317,3.66577523 C71.2115642,3.05796088 70.7396577,2.51266458 69.9970989,2.02988632 L69.2383472,1.53553065 C68.5223909,1.06896078 67.8446036,0.859409542 67.2061418,0.906876949 C66.5688367,0.954344355 66.0691709,1.25651492 65.7094579,1.8122309 C65.3532147,2.36100042 65.2155753,2.85882932 65.2965397,3.30919081 C65.3786607,3.75839456 65.6608793,4.18675896 66.1443521,4.59544175 L65.8008319,5.12452967 Z" id="Fill-61"></path>
                        <path d="M64.0613706,8.09807325 L62.3021308,10.4911252 L66.4289997,11.6870723 L64.0613706,8.09807325 Z M61.7596696,10.339461 L63.7490795,7.63034564 L62.5276744,5.78027453 L62.9163033,5.25234435 L67.2178238,11.9012545 L66.8650506,12.3805595 L59.2439914,10.2468417 L59.6291504,9.72354249 L61.7596696,10.339461 Z" id="Fill-63"></path>
                        <polygon id="Fill-65" points="57.5553063 13.7827004 57.4084138 13.7132359 57.5009445 13.8486917 61.0414001 19.7682246 60.6053492 20.2984702 56.6288427 13.4689524 57.0105318 13.004698 64.4789153 15.5702535 64.047491 16.0981836"></polygon>
                        <polygon id="Fill-67" points="47.3229153 23.700494 47.7578095 23.2501325 55.2666752 24.6000592 50.7176351 20.1913791 51.1548426 19.7375444 56.4730441 24.8894946 56.03468 25.3444871 48.5165612 23.9945604 53.0725412 28.4067137 52.6399602 28.8536019"></polygon>
                        <path d="M47.3307804,30.6650045 C47.6673608,30.3547297 47.8373859,29.9692018 47.8408558,29.5118938 C47.8443257,29.0499549 47.6800838,28.5903315 47.3469733,28.1272349 L44.9191992,30.3628339 L44.9631513,30.4114591 C45.3332741,30.7888828 45.7357826,31.0042228 46.1706768,31.0563212 C46.6044144,31.1084195 46.9918867,30.9775947 47.3307804,30.6650045 M43.7382762,26.9231836 C44.0817964,26.6059624 44.4704254,26.4021998 44.9053196,26.316527 C45.3379006,26.2308541 45.7727948,26.2679018 46.2053758,26.4299856 C46.6391135,26.589754 47.0300556,26.8595078 47.3758891,27.2357738 L47.5239382,27.3966999 C47.8824946,27.7857011 48.127701,28.207119 48.2641837,28.6574805 C48.4018232,29.1066843 48.4145461,29.5454683 48.3116057,29.972675 C48.2051954,30.3998817 47.9958447,30.7576238 47.682397,31.0470592 C47.1908277,31.4997362 46.6460533,31.6907636 46.0503869,31.6189836 C45.453564,31.5495191 44.8879701,31.2230359 44.3536054,30.6418497 L44.1234353,30.3917775 L47.0103929,27.732445 L46.9305851,27.6456143 C46.5084139,27.1871487 46.0260976,26.925499 45.4801665,26.8618233 C44.9377053,26.7981475 44.4657988,26.9498116 44.0667602,27.3179735 C43.827337,27.5379444 43.6561553,27.7764391 43.5520582,28.0334578 C43.4502745,28.2881609 43.4121056,28.5810696 43.4387081,28.9121837 L42.9633317,28.9561779 C42.8534515,28.1770177 43.1125374,27.4997389 43.7382762,26.9231836" id="Fill-69"></path>
                        <path d="M38.4324507,32.5824562 C38.3711491,31.9375941 38.6510544,31.3587233 39.2686968,30.8435282 C39.7174707,30.46842 40.1697144,30.3144403 40.6219582,30.3804316 C41.0742019,30.4452651 41.516036,30.732385 41.9497736,31.2417914 L44.2399083,33.9937432 L43.7772548,34.3804289 L41.5345421,31.6898374 C40.8636946,30.8840492 40.2021002,30.7532244 39.5509154,31.2962052 C38.8754414,31.8611831 38.6811269,32.4990988 38.9668154,33.2087944 L41.516036,36.2687055 L41.048756,36.6588644 L37.5256499,32.430792 L37.9778936,32.0533682 L38.4324507,32.5824562 Z" id="Fill-71"></path>
                        <path d="M36.52921,39.5120029 C36.64603,39.4518003 36.7605367,39.3777048 36.8773567,39.2897165 C37.1792381,39.0581681 37.3700827,38.7791524 37.4498904,38.4515115 C37.5296981,38.1227129 37.4926858,37.7649708 37.334227,37.3759696 L35.0394658,34.3739455 L35.5206254,34.0057837 L38.8632967,38.3785738 L38.3902335,38.7397892 L37.8523989,38.0497752 C37.9911949,38.7641018 37.7783743,39.3371839 37.2127805,39.7701792 C37.078611,39.8732182 36.9594777,39.9357363 36.8530674,39.9612066 L36.52921,39.5120029 Z" id="Fill-73"></path>
                        <path d="M31.0701304,37.8511067 C30.73702,38.0849705 30.4964402,38.3755637 30.3472344,38.7194129 C30.1980287,39.0644199 30.1587031,39.4140579 30.2281011,39.7660114 L30.923238,40.7570382 L31.8138459,40.1330155 C32.3054152,39.7775888 32.6315859,39.4140579 32.7865748,39.0401074 C32.9427203,38.6673146 32.9138045,38.3257808 32.6963574,38.0189793 C32.5205491,37.7654338 32.2788126,37.6230316 31.974618,37.5859839 C31.6715799,37.5524094 31.3685419,37.6403978 31.0701304,37.8511067 L31.0701304,37.8511067 Z M29.2542156,38.5932191 C29.404578,38.6974159 29.5826996,38.8861277 29.7920503,39.1535661 C29.8059299,38.8027703 29.9054004,38.4716562 30.0893051,38.159066 C30.2732099,37.8441603 30.5161029,37.5813529 30.8179843,37.3683285 C31.2505653,37.0638424 31.6854596,36.9388063 32.1226671,36.9920624 C32.558718,37.0464763 32.9068647,37.2560275 33.1659506,37.6253471 C33.4736152,38.0641312 33.5349168,38.5388052 33.3498554,39.0516848 C33.1659506,39.5634066 32.7460926,40.0461848 32.0949079,40.5058083 L31.191577,41.1414084 L31.55129,41.6519725 C31.7768336,41.9761401 32.0555823,42.1579056 32.3829096,42.2030575 C32.710237,42.2482094 33.0653235,42.1359085 33.4446993,41.8696279 C33.7916894,41.6265022 34.0160764,41.335909 34.1178601,40.9990062 C34.2208005,40.6609456 34.1837883,40.3668793 34.0091366,40.1168071 L34.5111156,39.7706423 C34.7609484,40.1283845 34.812997,40.5555912 34.6649479,41.0522623 C34.5157421,41.5477757 34.1988245,41.9668782 33.714195,42.308412 C33.2133726,42.6603654 32.7298997,42.8131873 32.2626197,42.7668777 C31.7964964,42.7194102 31.4009277,42.473969 31.0770702,42.0293962 L29.5815429,39.9003094 C29.275035,39.4638408 29.0009128,39.1697744 28.7568631,39.0181103 L28.7221641,38.9671696 L29.2542156,38.5932191 Z" id="Fill-75"></path>
                        <polygon id="Fill-77" points="26.1363939 40.6595564 26.647626 40.3272845 30.8936281 46.884733 30.3835527 47.2170049"></polygon>
                        <polygon id="Fill-79" points="20.4910964 44.7206824 17.303414 46.5093932 17.0454847 46.0474543 20.782568 43.9496265 24.4016748 50.4121402 23.8522738 50.7200995"></polygon>
                        <path d="M15.7188259,52.4325151 C16.1282742,52.2275949 16.4000831,51.9069004 16.5284694,51.4658009 C16.6603257,51.0247013 16.6302532,50.5361343 16.438252,49.9977845 L13.4853663,51.4715896 L13.5154388,51.5317921 C13.7664283,51.9972043 14.0937556,52.3144255 14.4951075,52.4857712 C14.8987726,52.6559593 15.3070643,52.6385931 15.7188259,52.4325151 M13.3072447,47.8374386 C13.7259461,47.6290451 14.1550572,47.5433723 14.594578,47.5815777 C15.0375687,47.6197832 15.4435471,47.7760783 15.8148265,48.0504631 C16.1872625,48.3248479 16.4868306,48.6930097 16.7135308,49.1503176 L16.8130013,49.3471337 C17.047798,49.82065 17.1680879,50.2918509 17.1750277,50.7630517 C17.1796542,51.2354103 17.0720873,51.6603015 16.8511702,52.0400407 C16.6325665,52.41978 16.3318417,52.7068999 15.9501526,52.8967695 C15.352173,53.1954669 14.7784827,53.2278836 14.2244552,52.9940198 C13.6704277,52.7589983 13.2170273,52.2889552 12.864254,51.581575 L12.712735,51.277089 L16.2254314,49.5254259 L16.1745395,49.4212292 C15.8957908,48.86204 15.503692,48.476512 14.9993997,48.2634875 C14.4927942,48.0516208 13.9989116,48.0666715 13.5131255,48.3086395 C13.2216538,48.4533572 12.9926404,48.6351226 12.8214586,48.8516203 C12.6525901,49.0704335 12.5334568,49.341345 12.4675287,49.6655126 L11.9967788,49.5752088 C12.1101289,48.7972064 12.5461798,48.2160201 13.3072447,47.8374386" id="Fill-81"></path>
                        <path d="M11.2368705,55.0284034 L10.8413017,54.1751478 C10.78694,54.56878 10.6550837,54.9079983 10.4434198,55.1962759 C10.2340691,55.4822381 9.95763364,55.7010513 9.61642671,55.8503999 C9.07627879,56.0854215 8.60668552,56.1108918 8.20996018,55.9210222 C7.81323483,55.7323103 7.47896771,55.3352049 7.2106287,54.7262328 L5.76367999,51.4174073 L6.31770751,51.1742815 L7.76581285,54.4888958 C7.96706711,54.9369418 8.20880354,55.2310082 8.49217879,55.3699372 C8.77671067,55.5077084 9.12601404,55.4868691 9.53893225,55.3051036 C9.88245245,55.1545972 10.1403818,54.913787 10.3115635,54.5815151 C10.4839019,54.2492433 10.5509867,53.8718195 10.5197576,53.4492438 L9.0080374,49.9957006 L9.56322156,49.7525748 L11.7666087,54.7968551 L11.2368705,55.0284034 Z" id="Fill-83"></path>
                        <path d="M0.864411144,54.837376 C0.971978075,55.119865 1.1720757,55.3027882 1.46354738,55.388461 C1.75501906,55.4729762 2.1448046,55.4776071 2.63753054,55.4000384 C3.13141311,55.3236275 3.52813846,55.2993149 3.82770658,55.3294162 C4.12611806,55.3583597 4.37132439,55.4405594 4.56216895,55.5748574 C4.75185687,55.7079977 4.89643608,55.9048138 4.9935933,56.1618324 C5.14858221,56.567042 5.1069434,56.9664629 4.86752023,57.3612528 C4.63041033,57.7548849 4.24640796,58.0512668 3.71782638,58.2527138 C3.14413608,58.471527 2.63059074,58.5051015 2.17487708,58.3534373 C1.72032005,58.2006154 1.40687233,57.8972871 1.23337728,57.4411369 L1.80359767,57.2246392 C1.91810441,57.5244943 2.13902144,57.7270991 2.46634876,57.8312959 C2.79367609,57.9354926 3.14876262,57.9146532 3.53276499,57.7676201 C3.9075143,57.6252178 4.17469667,57.4284018 4.33893865,57.1760141 C4.502024,56.9236264 4.53325311,56.6642923 4.43146934,56.3980117 C4.33431212,56.1398353 4.1654436,55.9765938 3.9213939,55.9094448 C3.67965747,55.8388225 3.28640202,55.841138 2.74394084,55.912918 C2.19916639,55.9858557 1.77930837,56.0020641 1.47858362,55.9638586 C1.18017213,55.9256531 0.936122431,55.8353493 0.744121244,55.6941048 C0.552120057,55.5528603 0.406384216,55.3479401 0.305757088,55.083975 C0.139201841,54.6498219 0.181997286,54.2353504 0.434143424,53.842876 C0.685132927,53.4492438 1.09226797,53.1447578 1.65786183,52.9305756 C2.25584143,52.7025005 2.79598935,52.6619795 3.27830559,52.8113282 C3.76062182,52.9606769 4.08563588,53.255901 4.25566103,53.7004737 L3.684284,53.9169714 C3.53507826,53.591646 3.29796836,53.385568 2.96832777,53.2998951 C2.63984381,53.2119068 2.26278124,53.2501123 1.83829668,53.4110383 C1.44272797,53.5615448 1.15588283,53.7699382 0.98007451,54.0373766 C0.800796293,54.3036571 0.762627382,54.5710954 0.864411144,54.837376" id="Fill-85"></path>
                    </g>
                </g>
            </g>
        </g>
    </g>
</svg>