<?xml version="1.0" encoding="UTF-8"?>
<svg width="108px" height="34px" viewBox="0 0 108 34" version="1.1" xmlns="http://www.w3.org/2000/svg" xmlns:xlink="http://www.w3.org/1999/xlink">
    <!-- Generator: Sketch 62 (91390) - https://sketch.com -->
    <title>logo-type</title>
    <desc>Created with Sketch.</desc>
    <g id="Page-1" stroke="none" stroke-width="1" fill="none" fill-rule="evenodd">
        <g id="2.3---History-comparison" transform="translate(-38.000000, -18.000000)">
            <g id="logo-type" transform="translate(38.000000, 18.000000)">
                <rect id="Rectangle" fill="#454545" x="0" y="0" width="108" height="34"></rect>
                <path d="M18.123,23.272 C19.1203333,23.272 20.027,23.0821667 20.843,22.7025 C21.659,22.3228333 22.373,21.7703333 22.985,21.045 L22.985,21.045 L21.336,19.498 C20.4746667,20.5633333 19.4093333,21.096 18.14,21.096 C17.3806667,21.096 16.6893333,20.9231667 16.066,20.5775 C15.4426667,20.2318333 14.9496667,19.7416667 14.587,19.107 C14.2243333,18.4723333 14.043,17.7413333 14.043,16.914 C14.043,16.0866667 14.2243333,15.3556667 14.587,14.721 C14.9496667,14.0863333 15.4426667,13.5961667 16.066,13.2505 C16.6893333,12.9048333 17.3806667,12.732 18.14,12.732 C19.2846667,12.732 20.2593333,13.191 21.064,14.109 L21.064,14.109 L22.679,12.545 C21.4776667,11.219 19.959,10.556 18.123,10.556 C16.9443333,10.556 15.8676667,10.8365 14.893,11.3975 C13.9183333,11.9585 13.1505,12.7235 12.5895,13.6925 C12.0285,14.6615 11.748,15.7353333 11.748,16.914 C11.748,18.0926667 12.0285,19.1665 12.5895,20.1355 C13.1505,21.1045 13.9183333,21.8695 14.893,22.4305 C15.8676667,22.9915 16.9443333,23.272 18.123,23.272 Z M26.6958571,23 L27.7158571,20.093 L32.3908571,20.093 L33.3938571,23 L35.9268571,23 L31.3538571,10.828 L28.7358571,10.828 L24.1628571,23 L26.6958571,23 Z M31.6428571,17.985 L28.4468571,17.985 L29.5348571,14.925 L29.9768571,13.463 L30.1128571,13.463 L30.5548571,14.925 L31.6428571,17.985 Z M42.1537143,23 L46.6077143,10.828 L44.1257143,10.828 L41.4907143,18.172 L41.0317143,19.719 L40.8957143,19.719 L40.4367143,18.172 L37.9377143,10.828 L35.4557143,10.828 L39.7567143,23 L42.1537143,23 Z M50.3865714,23.272 C51.0665714,23.272 51.6814048,23.1473333 52.2310714,22.898 C52.7807381,22.6486667 53.2085714,22.3143333 53.5145714,21.895 C53.8205714,21.4756667 53.9735714,21.011 53.9735714,20.501 C53.9735714,19.8776667 53.7582381,19.345 53.3275714,18.903 C52.8969048,18.461 52.2622381,18.138 51.4235714,17.934 L51.4235714,17.934 L50.1485714,17.611 C49.7859048,17.5203333 49.5110714,17.4155 49.3240714,17.2965 C49.1370714,17.1775 49.0435714,17.016 49.0435714,16.812 C49.0435714,16.5966667 49.1597381,16.4238333 49.3920714,16.2935 C49.6244048,16.1631667 49.9105714,16.098 50.2505714,16.098 C50.5905714,16.098 50.9050714,16.1745 51.1940714,16.3275 C51.4830714,16.4805 51.7069048,16.7156667 51.8655714,17.033 L51.8655714,17.033 L53.7695714,16.217 C53.4862381,15.571 53.0385714,15.0893333 52.4265714,14.772 C51.8145714,14.4546667 51.0892381,14.296 50.2505714,14.296 C49.2759048,14.296 48.4655714,14.5311667 47.8195714,15.0015 C47.1735714,15.4718333 46.8505714,16.098 46.8505714,16.88 C46.8505714,17.526 47.0885714,18.0615 47.5645714,18.4865 C48.0405714,18.9115 48.5959048,19.192 49.2305714,19.328 L49.2305714,19.328 L50.3525714,19.583 C50.8399048,19.6963333 51.1884048,19.8238333 51.3980714,19.9655 C51.6077381,20.1071667 51.7125714,20.297 51.7125714,20.535 C51.7125714,20.773 51.5879048,20.9628333 51.3385714,21.1045 C51.0892381,21.2461667 50.7719048,21.317 50.3865714,21.317 C49.9559048,21.317 49.5790714,21.2121667 49.2560714,21.0025 C48.9330714,20.7928333 48.6809048,20.4783333 48.4995714,20.059 L48.4995714,20.059 L46.5105714,20.909 C46.7825714,21.589 47.2387381,22.1528333 47.8790714,22.6005 C48.5194048,23.0481667 49.3552381,23.272 50.3865714,23.272 Z M59.3674286,23.136 C59.9114286,23.136 60.4214286,23.0453333 60.8974286,22.864 L60.8974286,22.864 L60.8974286,20.722 C60.7047619,20.8353333 60.5319286,20.9175 60.3789286,20.9685 C60.2259286,21.0195 60.0530952,21.045 59.8604286,21.045 C59.4977619,21.045 59.2370952,20.9543333 59.0784286,20.773 C58.8857619,20.5803333 58.7894286,20.263 58.7894286,19.821 L58.7894286,19.821 L58.7894286,16.472 L60.8634286,16.472 L60.8634286,14.568 L58.7894286,14.568 L58.7894286,12.052 L56.5624286,12.052 L56.5624286,14.568 L55.0834286,14.568 L55.0834286,16.472 L56.5624286,16.472 L56.5624286,20.229 C56.5624286,21.1696667 56.8287619,21.895 57.3614286,22.405 C57.5994286,22.643 57.8884286,22.8243333 58.2284286,22.949 C58.5684286,23.0736667 58.9480952,23.136 59.3674286,23.136 Z M65.9682857,23.272 C66.5236191,23.272 67.0279524,23.1501667 67.4812857,22.9065 C67.9346191,22.6628333 68.2972857,22.3313333 68.5692857,21.912 L68.5692857,21.912 L68.7052857,21.912 L68.7052857,23 L70.7962857,23 L70.7962857,14.568 L68.5692857,14.568 L68.5692857,18.75 C68.5692857,19.464 68.3936191,20.0533333 68.0422857,20.518 C67.6909524,20.9826667 67.2149524,21.215 66.6142857,21.215 C66.1156191,21.215 65.7302857,21.0591667 65.4582857,20.7475 C65.1862857,20.4358333 65.0502857,19.991 65.0502857,19.413 L65.0502857,19.413 L65.0502857,14.568 L62.8232857,14.568 L62.8232857,19.685 C62.8232857,20.807 63.0896191,21.6853333 63.6222857,22.32 C64.1549524,22.9546667 64.9369524,23.272 65.9682857,23.272 Z M76.6491429,23.272 C77.2384762,23.272 77.7569762,23.1501667 78.2046429,22.9065 C78.6523095,22.6628333 78.9894762,22.354 79.2161429,21.98 L79.2161429,21.98 L79.3521429,21.98 L79.3521429,23 L81.4261429,23 L81.4261429,10.828 L79.2161429,10.828 L79.2161429,14.381 L79.3521429,15.571 L79.2161429,15.571 C78.9894762,15.197 78.6523095,14.891 78.2046429,14.653 C77.7569762,14.415 77.2384762,14.296 76.6491429,14.296 C75.9124762,14.296 75.2353095,14.4886667 74.6176429,14.874 C73.9999762,15.2593333 73.5069762,15.792 73.1386429,16.472 C72.7703095,17.152 72.5861429,17.9226667 72.5861429,18.784 C72.5861429,19.6453333 72.7703095,20.416 73.1386429,21.096 C73.5069762,21.776 73.9999762,22.3086667 74.6176429,22.694 C75.2353095,23.0793333 75.9124762,23.272 76.6491429,23.272 Z M77.0741429,21.215 C76.6774762,21.215 76.3063095,21.113 75.9606429,20.909 C75.6149762,20.705 75.3373095,20.4188333 75.1276429,20.0505 C74.9179762,19.6821667 74.8131429,19.26 74.8131429,18.784 C74.8131429,18.2966667 74.9179762,17.8688333 75.1276429,17.5005 C75.3373095,17.1321667 75.6149762,16.8488333 75.9606429,16.6505 C76.3063095,16.4521667 76.6774762,16.353 77.0741429,16.353 C77.4708095,16.353 77.8448095,16.4521667 78.1961429,16.6505 C78.5474762,16.8488333 78.8279762,17.1321667 79.0376429,17.5005 C79.2473095,17.8688333 79.3521429,18.2966667 79.3521429,18.784 C79.3521429,19.2713333 79.2473095,19.6991667 79.0376429,20.0675 C78.8279762,20.4358333 78.5474762,20.7191667 78.1961429,20.9175 C77.8448095,21.1158333 77.4708095,21.215 77.0741429,21.215 Z M85.018,13.446 C85.4146667,13.446 85.7546667,13.3043333 86.038,13.021 C86.3213334,12.7376667 86.463,12.3976667 86.463,12.001 C86.463,11.6043333 86.3213334,11.2671667 86.038,10.9895 C85.7546667,10.7118333 85.4146667,10.573 85.018,10.573 C84.6326667,10.573 84.2983334,10.7118333 84.015,10.9895 C83.7316667,11.2671667 83.59,11.6043333 83.59,12.001 C83.59,12.3976667 83.7288334,12.7376667 84.0065,13.021 C84.2841667,13.3043333 84.6213334,13.446 85.018,13.446 Z M86.14,23 L86.14,14.568 L83.913,14.568 L83.913,23 L86.14,23 Z M92.5538572,23.272 C93.4038572,23.272 94.1688572,23.0793333 94.8488572,22.694 C95.5288572,22.3086667 96.0615238,21.7731667 96.4468572,21.0875 C96.8321905,20.4018333 97.0248572,19.634 97.0248572,18.784 C97.0248572,17.934 96.8321905,17.1661667 96.4468572,16.4805 C96.0615238,15.7948333 95.5288572,15.2593333 94.8488572,14.874 C94.1688572,14.4886667 93.4038572,14.296 92.5538572,14.296 C91.6925238,14.296 90.9218572,14.4886667 90.2418572,14.874 C89.5618572,15.2593333 89.0291905,15.792 88.6438572,16.472 C88.2585238,17.152 88.0658572,17.9226667 88.0658572,18.784 C88.0658572,19.634 88.2585238,20.4018333 88.6438572,21.0875 C89.0291905,21.7731667 89.5618572,22.3086667 90.2418572,22.694 C90.9218572,23.0793333 91.6925238,23.272 92.5538572,23.272 Z M92.5538572,21.215 C92.1458572,21.215 91.7690238,21.1158333 91.4233572,20.9175 C91.0776905,20.7191667 90.8028572,20.4358333 90.5988572,20.0675 C90.3948572,19.6991667 90.2928572,19.2713333 90.2928572,18.784 C90.2928572,18.2966667 90.3948572,17.8688333 90.5988572,17.5005 C90.8028572,17.1321667 91.0776905,16.8488333 91.4233572,16.6505 C91.7690238,16.4521667 92.1458572,16.353 92.5538572,16.353 C92.9505238,16.353 93.3216905,16.4521667 93.6673572,16.6505 C94.0130238,16.8488333 94.2878572,17.1321667 94.4918572,17.5005 C94.6958572,17.8688333 94.7978572,18.2966667 94.7978572,18.784 C94.7978572,19.2713333 94.6958572,19.6991667 94.4918572,20.0675 C94.2878572,20.4358333 94.0130238,20.7191667 93.6673572,20.9175 C93.3216905,21.1158333 92.9505238,21.215 92.5538572,21.215 Z" id="CAVstudio" fill="#FFFFFF" fill-rule="nonzero"></path>
            </g>
        </g>
    </g>
</svg>